<svg width="18" height="19" viewBox="0 0 18 19" fill="none" xmlns="http://www.w3.org/2000/svg">
    <path d="M15 0.75H2.5C1.09375 0.75 0 1.88281 0 3.25V15.75C0 17.1562 1.09375 18.25 2.5 18.25H15C16.3672 18.25 17.5 17.1562 17.5 15.75V3.25C17.5 1.88281 16.3672 0.75 15 0.75ZM12.8906 12.1562C12.8906 12.4297 12.7344 12.6641 12.5 12.7422C12.2656 12.8594 11.9922 12.7812 11.8359 12.625L10.0391 10.8281L7.42188 13.4844C6.91406 13.9922 6.13281 13.9922 5.625 13.4844L4.76562 12.625C4.25781 12.1172 4.25781 11.3359 4.76562 10.8281L7.42188 8.17188L5.625 6.41406C5.46875 6.25781 5.39062 5.98438 5.50781 5.75C5.58594 5.51562 5.82031 5.35938 6.09375 5.35938H12.2656C12.6172 5.35938 12.8516 5.63281 12.8516 5.94531V12.1562H12.8906Z" fill="white"/>
</svg>